<?xml version="1.0" encoding="UTF-8" standalone="no"?>
<!DOCTYPE svg PUBLIC "-//W3C//DTD SVG 1.1//EN" "http://www.w3.org/Graphics/SVG/1.1/DTD/svg11.dtd">
<svg width="100%" height="100%" viewBox="0 0 802 802" version="1.1" xmlns="http://www.w3.org/2000/svg" xmlns:xlink="http://www.w3.org/1999/xlink" xml:space="preserve" xmlns:serif="http://www.serif.com/" style="fill-rule:evenodd;clip-rule:evenodd;stroke-linejoin:round;stroke-miterlimit:2;">
    <g transform="matrix(1,0,0,1,-1113,-67)">
        <g id="Artboard2" transform="matrix(1,0,0,1,-0.648862,-0.728801)">
            <rect x="1113.65" y="67.729" width="801.67" height="801.67" style="fill:none;"/>
            <g transform="matrix(1.50283,0,0,1.50283,608.228,-190.14)">
                <path d="M755.822,539.429L793.292,539.429L793.292,502.064L755.822,502.064L755.822,539.429ZM585.946,539.429L622.591,539.429L622.591,502.064L585.946,502.064L585.946,539.429ZM412.771,539.429L450.241,539.429L450.241,502.064L412.771,502.064L412.771,539.429ZM603.651,381.545C586.769,357.717 556.66,337.187 518.3,337.187C457.665,337.187 414.418,386.069 414.418,440.776L451.89,440.776C451.89,405.402 479.114,374.551 518.3,374.551C557.073,374.551 585.534,404.579 585.534,440.776L622.179,440.776C622.179,404.168 650.227,374.551 689.413,374.551C728.186,374.551 755.822,405.813 755.822,440.776L793.292,440.776C793.292,402.523 772.293,369.213 740.972,351.147C725.711,342.524 708.387,337.187 689.413,337.187C651.052,337.187 620.532,357.717 603.651,381.545ZM603.031,429.582L588.462,400.442L617.601,400.442L603.031,429.582Z" style="fill:#fff;fill-rule:nonzero;"/>
                <g transform="matrix(-1,1.22465e-16,-1.22465e-16,-1,1209.76,875.821)">
                    <path d="M606.729,390.442L621.299,419.582L592.159,419.582L606.729,390.442Z" style="fill:#fff;"/>
                </g>
                <g transform="matrix(-1,-1.22465e-16,-1.22465e-16,1,1380.95,65.797)">
                    <path d="M606.729,390.442L621.299,419.582L592.159,419.582L606.729,390.442Z" style="fill:#fff;"/>
                </g>
                <g transform="matrix(-1,-1.22465e-16,-1.22465e-16,1,1038.58,65.797)">
                    <path d="M606.729,390.442L621.299,419.582L592.159,419.582L606.729,390.442Z" style="fill:#fff;"/>
                </g>
            </g>
        </g>
    </g>
</svg>
