<?xml version="1.0" encoding="UTF-8"?>
<!DOCTYPE svg PUBLIC "-//W3C//DTD SVG 1.1//EN" "http://www.w3.org/Graphics/SVG/1.1/DTD/svg11.dtd">
<!-- Creator: CorelDRAW 2021 (64-Bit) -->
<svg xmlns="http://www.w3.org/2000/svg" xml:space="preserve" width="60" version="1.1" style="shape-rendering:geometricPrecision; text-rendering:geometricPrecision; image-rendering:optimizeQuality; fill-rule:evenodd; clip-rule:evenodd"
viewBox="0 0 8500 11000"
 xmlns:xlink="http://www.w3.org/1999/xlink"
 xmlns:xodm="http://www.corel.com/coreldraw/odm/2003">
 <defs>
  <style type="text/css">
   <![CDATA[
    .fil0 {fill:#999}
   ]]>
  </style>
 </defs>
 <g id="Layer_x0020_1">
  <metadata id="CorelCorpID_0Corel-Layer"/>
  <g id="_2265175198400">
   <path class="fil0" d="M5724.4 7884.27l0.31 -0.21c304.63,-211.33 546.39,-506.94 691.43,-853.16l468.98 619.48c-172,283.9 -395.7,532.94 -657.98,734.22l-1.35 1.05 -501.37 -501.37z"/>
   <g>
    <path class="fil0" d="M2466.95 5390.24c-97.48,232.46 -151.43,487.69 -151.43,755.56 0,1080.24 875.71,1955.95 1955.95,1955.95 413.55,0 797.03,-128.43 1112.93,-347.48l501.37 501.37c-447.42,342.9 -1007.03,546.73 -1614.3,546.73 -1467.19,0 -2656.58,-1189.39 -2656.58,-2656.58 0,-770.46 328.08,-1464.21 852.06,-1949.44l0 1193.88z"/>
    <path class="fil0" d="M4271.47 3489.22c967.82,0 1814.72,517.56 2279.12,1290.98l-475.26 608.57c-295.92,-704.27 -992.06,-1198.92 -1803.86,-1198.92 -286.78,0 -559.13,61.74 -804.52,172.62l0 -749.18c253.79,-80.56 524.07,-124.07 804.52,-124.07z"/>
   </g>
   <path class="fil0" d="M2594.11 2197.63c203.5,0 370,166.5 370,370l0 455.86 -740 740 0 -1195.86c0,-203.5 166.5,-370 370,-370z"/>
   <path class="fil0" d="M3342.33 2841.72l0 0.33 0 1944.43c252.95,-163.76 554.46,-258.9 878.22,-258.9 893.72,0 1618.22,724.5 1618.22,1618.22 0,893.72 -724.5,1618.22 -1618.22,1618.22 -893.72,0 -1618.22,-724.5 -1618.22,-1618.22 0,-36.76 1.35,-73.2 3.76,-109.35 -2.46,-17.14 -3.76,-34.64 -3.76,-52.43l0 -2398.67 0 -3.62 740 -740zm878.22 2343.81c530.34,0 960.26,429.93 960.26,960.26 0,530.34 -429.93,960.26 -960.26,960.26 -530.34,0 -960.26,-429.93 -960.26,-960.26 0,-530.34 429.93,-960.26 960.26,-960.26z"/>
  </g>
 </g>
</svg>
